<svg id="Layer_1" data-name="Layer 1" xmlns="http://www.w3.org/2000/svg" viewBox="0 0 275.42 275.42"><defs><style>.cls-1{fill:#bf1010;}.cls-2{fill:#f7f2f2;}</style></defs><circle class="cls-1" cx="137.71" cy="137.71" r="137.71"/><path class="cls-2" d="M187.63,46.35c-1.94,0-3.9.06-5.83.15s-3.87.3-5.79.45a109.4,109.4,0,0,0-11.36,1.65,87.87,87.87,0,0,0-10.94,2.72c-1.77.58-3.52,1.18-5.23,1.87s-3.39,1.37-5,2.12a57.31,57.31,0,0,0-9.22,5.41,53.3,53.3,0,0,0-7.82,6.8c-4.78,4.92-8,11-10.46,17.32l.59-3q.61,15.75.88,31.5c.07,5.25.19,10.5.22,15.75l.08,15.75c0,10.5-.08,21-.28,31.5-.06,5.25-.22,10.5-.35,15.75s-.31,10.5-.5,15.75l-2.5-5.75c3.65,3.61,7.2,7.32,10.78,11l10.72,11.06c3.56,3.71,7,7.51,10.54,11.26l5.26,5.64c1.75,1.88,3.45,3.82,5.18,5.73l-2.85-1.12,8.5.76c2.84.22,5.67.57,8.5.86s5.67.58,8.5.94,5.67.69,8.5,1.11v1l-34,.21h-.27l-.21-.19-45.11-41.88-.27-.26v-.38l-.13-63,.14-63v-.17l.06-.16a56.78,56.78,0,0,1,13.32-19.46c.72-.68,1.43-1.37,2.22-2s1.51-1.27,2.3-1.87l2.42-1.72c.8-.58,1.67-1.06,2.5-1.59a64.11,64.11,0,0,1,10.64-5.17,84.5,84.5,0,0,1,23-5,104.29,104.29,0,0,1,23.49.63Z" transform="translate(-38.29 -15.43)"/><polygon class="cls-2" points="92.42 103.42 201.42 103.42 153.42 131.97 152.42 189.42 133.71 189.42 133.42 110.42 92.42 103.42"/><polygon class="cls-2" points="190.42 189.42 152.96 140.45 152.96 159.44 178.42 189.42 190.42 189.42"/></svg>